<svg version="1.1" xmlns="http://www.w3.org/2000/svg" xmlns:xlink="http://www.w3.org/1999/xlink" width="512px" height="512px" viewBox="0,0,256,256"><g fill="#000000" fill-rule="nonzero" stroke="none" stroke-width="1" stroke-linecap="butt" stroke-linejoin="miter" stroke-miterlimit="10" stroke-dasharray="" stroke-dashoffset="0" font-family="none" font-weight="none" font-size="none" text-anchor="none" style="mix-blend-mode: normal"><g transform="translate(0.02015,-0.475) scale(0.5,0.5)"><g><path d="M453.8,128.9c0,-0.1 0,-0.1 -0.1,-0.2c-0.5,-1.2 -1.2,-2.2 -2,-3.2c0,0 0,-0.1 -0.1,-0.1l-43.8,-45.6v-36.6c0,-23 -18.7,-41.7 -41.7,-41.7h-265.9c-23.6,0 -42.7,19.2 -42.7,42.7v386.5c0,23.6 19.2,42.7 42.7,42.7h4.2c1.9,21.8 20.3,39 42.5,39h264.8c23.6,0 42.7,-19.2 42.7,-42.7v-337.1c0.1,-1.3 -0.2,-2.6 -0.6,-3.7zM375.9,76.8l43.7,45.4h-43.7zM78.4,430.8v-386.6c0,-12.1 9.8,-21.9 21.9,-21.9h265.9c11.5,0 20.8,9.3 20.8,20.8v15l-14,-14.4c0,0 -0.1,0 -0.1,-0.1c-0.3,-0.3 -0.7,-0.6 -1,-0.9c-0.2,-0.1 -0.3,-0.3 -0.5,-0.4c-0.5,-0.4 -1.1,-0.7 -1.7,-0.9c0,0 0,0 -0.1,0c-1.3,-0.5 -2.6,-0.8 -4.1,-0.8h-218.5c-23.6,0 -42.7,19.2 -42.7,42.7v369.4h-4c-12.1,-0.1 -21.9,-9.9 -21.9,-21.9zM411.8,491.6h-264.8c-12.1,0 -21.9,-9.8 -21.9,-21.9v-386.5c0,-12.1 9.8,-21.9 21.9,-21.9h208v71.3c0,5.8 4.7,10.4 10.4,10.4h68.2v326.7c0,12.1 -9.8,21.9 -21.8,21.9z"></path><path d="M292.7,143.1h19.7c5.8,0 10.4,-4.7 10.4,-10.4c0,-5.8 -4.7,-10.4 -10.4,-10.4h-19.7c-5.8,0 -10.4,4.7 -10.4,10.4c-0.1,5.7 4.6,10.4 10.4,10.4z"></path><path d="M170.3,143.1h65.8c5.8,0 10.4,-4.7 10.4,-10.4c0,-5.8 -4.7,-10.4 -10.4,-10.4h-65.8c-5.8,0 -10.4,4.7 -10.4,10.4c-0.1,5.7 4.6,10.4 10.4,10.4z"></path><path d="M380.8,387.1h-144.7c-5.8,0 -10.4,4.7 -10.4,10.4c0,5.7 4.7,10.4 10.4,10.4h144.7c5.8,0 10.4,-4.7 10.4,-10.4c0,-5.7 -4.6,-10.4 -10.4,-10.4z"></path><path d="M195.8,387.1h-25.5c-5.8,0 -10.4,4.7 -10.4,10.4c0,5.7 4.7,10.4 10.4,10.4h25.5c5.8,0 10.4,-4.7 10.4,-10.4c0,-5.7 -4.6,-10.4 -10.4,-10.4z"></path><path d="M380.8,321.9h-39.1c-5.8,0 -10.4,4.7 -10.4,10.4c0,5.7 4.7,10.4 10.4,10.4h39.1c5.8,0 10.4,-4.7 10.4,-10.4c0,-5.7 -4.6,-10.4 -10.4,-10.4z"></path><path d="M170.3,342.8h115.4c5.8,0 10.4,-4.7 10.4,-10.4c0,-5.7 -4.7,-10.4 -10.4,-10.4h-115.4c-5.8,0 -10.4,4.7 -10.4,10.4c0,5.7 4.6,10.4 10.4,10.4z"></path><path d="M380.8,256.6h-78.3c-5.8,0 -10.4,4.7 -10.4,10.4c0,5.7 4.7,10.4 10.4,10.4h78.3c5.8,0 10.4,-4.7 10.4,-10.4c0,-5.7 -4.6,-10.4 -10.4,-10.4z"></path><path d="M170.3,277.5h79.7c5.8,0 10.4,-4.7 10.4,-10.4c0,-5.7 -4.7,-10.4 -10.4,-10.4h-79.8c-5.8,0 -10.4,4.7 -10.4,10.4c0,5.7 4.7,10.4 10.5,10.4z"></path><path d="M380.8,189.4h-144.7c-5.8,0 -10.4,4.7 -10.4,10.4c0,5.8 4.7,10.4 10.4,10.4h144.7c5.8,0 10.4,-4.7 10.4,-10.4c0,-5.7 -4.6,-10.4 -10.4,-10.4z"></path><path d="M170.3,210.3h18.8c5.8,0 10.4,-4.7 10.4,-10.4c0,-5.8 -4.7,-10.4 -10.4,-10.4h-18.8c-5.8,0 -10.4,4.7 -10.4,10.4c-0.1,5.7 4.6,10.4 10.4,10.4z"></path></g></g></g></svg>