<?xml version="1.0" standalone="no"?>
<!DOCTYPE svg PUBLIC "-//W3C//DTD SVG 20010904//EN"
 "http://www.w3.org/TR/2001/REC-SVG-20010904/DTD/svg10.dtd">
<svg version="1.0" xmlns="http://www.w3.org/2000/svg"
 width="1700.000000pt" height="1664.000000pt"  viewBox="0 0 1700.000000 1664.000000"
 preserveAspectRatio="xMidYMid meet">
<metadata>
Created by potrace 1.16, written by Peter Selinger 2001-2019
</metadata>
<g transform="translate(0.000000,1664.000000) scale(0.100000,-0.100000)"
fill="#ffffff" stroke="none">
<path d="M8317 15443 c-1 0 -56 -4 -122 -8 -66 -4 -123 -8 -126 -10 -3 -2 -34
-7 -70 -10 -71 -7 -238 -37 -339 -61 -36 -9 -76 -18 -90 -20 -14 -3 -45 -12
-70 -21 -25 -8 -54 -16 -65 -18 -24 -3 -149 -47 -266 -92 -156 -60 -489 -219
-509 -243 -3 -3 -27 -19 -55 -35 -69 -39 -178 -115 -187 -129 -4 -6 -8 -7 -8
-1 0 6 -3 6 -8 0 -4 -6 -23 -22 -42 -35 -19 -13 -37 -27 -40 -30 -3 -3 -21
-17 -40 -30 -19 -13 -44 -32 -55 -41 -11 -10 -32 -28 -47 -41 -125 -108 -251
-228 -286 -272 -12 -16 -22 -25 -22 -20 0 4 -10 -5 -23 -22 -24 -31 -65 -78
-111 -128 -36 -39 -278 -373 -276 -381 1 -3 -15 -28 -34 -55 -20 -28 -36 -53
-36 -58 0 -4 -11 -24 -25 -45 -14 -20 -23 -37 -19 -37 4 0 0 -8 -8 -17 -18
-22 -99 -185 -96 -194 2 -4 -4 -15 -13 -25 -8 -11 -24 -41 -34 -69 -10 -27
-21 -54 -25 -60 -10 -13 -31 -78 -27 -86 1 -3 -3 -12 -9 -20 -16 -19 -103
-289 -119 -369 -2 -8 -9 -37 -15 -65 -6 -27 -14 -61 -16 -75 -2 -14 -9 -45
-14 -70 -13 -61 -19 -95 -26 -160 -3 -30 -7 -57 -9 -60 -9 -15 -19 -225 -19
-410 -1 -186 6 -354 18 -420 2 -14 7 -54 11 -90 4 -36 13 -94 22 -130 8 -35
16 -80 19 -100 2 -19 9 -50 15 -68 6 -18 12 -43 14 -55 2 -12 8 -38 15 -57 6
-19 13 -46 16 -60 16 -80 160 -472 176 -478 4 -2 6 -8 2 -13 -3 -5 -1 -9 4 -9
5 0 9 -6 9 -12 0 -17 167 -331 197 -372 13 -17 34 -50 46 -73 13 -24 28 -43
32 -43 5 0 6 -4 3 -10 -3 -5 -2 -10 2 -10 5 0 17 -13 26 -30 10 -16 24 -35 31
-42 7 -8 24 -31 38 -53 14 -22 34 -50 44 -62 11 -12 33 -38 49 -59 35 -43 49
-59 130 -150 80 -89 170 -179 235 -234 29 -25 64 -55 78 -68 13 -13 115 -89
226 -169 110 -80 209 -154 219 -163 19 -18 21 -105 12 -797 l-3 -261 26 -7
c15 -4 36 -8 47 -10 38 -7 100 -16 135 -20 19 -3 73 -10 120 -16 47 -6 101
-13 120 -15 64 -8 95 -12 135 -19 22 -4 45 -8 50 -9 33 -5 33 -17 25 -641 -1
-55 -1 -110 -1 -122 1 -23 6 -26 116 -83 33 -17 68 -35 78 -40 9 -6 25 -14 35
-20 40 -22 148 -74 154 -74 4 -1 13 -7 19 -13 7 -7 21 -13 30 -13 10 0 20 -4
24 -9 5 -9 120 -67 140 -71 6 -1 17 -7 25 -13 8 -7 31 -20 50 -30 l35 -18 3
-182 c2 -100 5 -244 6 -320 l2 -139 -50 -25 c-28 -14 -53 -29 -56 -34 -3 -5
-48 -31 -100 -60 -52 -28 -98 -56 -102 -63 -4 -6 -8 -6 -8 -1 0 6 -3 6 -8 -1
-4 -5 -43 -30 -87 -54 -44 -23 -82 -46 -85 -49 -3 -4 -54 -35 -115 -70 -153
-87 -238 -138 -251 -150 -7 -5 -15 -7 -18 -4 -3 4 -6 1 -6 -6 0 -7 -4 -10 -9
-7 -5 4 -11 3 -13 -2 -1 -4 -20 -18 -40 -30 l-37 -23 4 -62 c4 -60 11 -151 20
-287 6 -91 15 -154 23 -167 4 -6 32 -23 62 -37 67 -33 206 -106 240 -126 14
-8 27 -15 30 -15 7 -2 123 -61 205 -105 39 -21 98 -52 132 -68 34 -17 64 -36
68 -42 10 -16 16 -136 18 -400 l2 -245 -190 -96 c-104 -53 -195 -101 -201
-107 -7 -6 -15 -8 -18 -5 -3 4 -6 1 -6 -6 0 -7 -4 -9 -10 -6 -5 3 -10 1 -10
-5 0 -6 -4 -8 -10 -5 -5 3 -10 1 -10 -5 0 -6 -4 -8 -10 -5 -5 3 -10 1 -10 -6
0 -7 -3 -10 -6 -6 -15 14 -34 -26 -39 -80 -3 -32 -8 -83 -11 -113 -3 -30 -7
-90 -9 -132 -4 -84 -1 -89 75 -126 24 -12 52 -28 145 -82 93 -54 121 -70 145
-82 14 -7 39 -21 55 -32 17 -12 33 -21 37 -21 23 0 48 -38 49 -72 0 -21 2 -47
4 -57 2 -11 6 -65 10 -120 3 -56 8 -130 12 -166 7 -87 6 -101 -9 -116 -7 -7
-130 -72 -273 -145 -143 -73 -262 -136 -263 -141 -2 -4 -8 -6 -13 -2 -5 3 -9
0 -9 -6 0 -6 -4 -8 -10 -5 -5 3 -10 1 -10 -5 0 -6 -4 -8 -10 -5 -5 3 -10 1
-10 -5 0 -6 -4 -8 -10 -5 -5 3 -10 1 -10 -5 0 -6 -4 -9 -9 -6 -5 4 -11 2 -13
-3 -1 -5 -30 -22 -62 -38 l-59 -30 -3 -49 c-1 -27 -5 -133 -9 -237 -6 -175 -5
-188 12 -194 10 -3 25 -12 34 -19 17 -15 81 -52 146 -85 23 -11 47 -27 54 -35
6 -8 17 -14 23 -14 6 0 28 -11 49 -25 20 -14 37 -23 37 -20 0 4 12 -3 28 -15
15 -12 41 -28 57 -36 17 -7 37 -18 45 -23 35 -22 95 -56 100 -56 3 0 19 -9 35
-21 17 -11 41 -26 55 -32 14 -7 48 -26 75 -42 28 -17 59 -35 70 -40 11 -5 43
-23 70 -39 28 -17 66 -38 85 -49 19 -10 53 -29 75 -42 40 -24 61 -35 170 -93
34 -18 75 -43 93 -56 18 -12 32 -19 32 -16 0 3 14 -4 32 -16 32 -23 125 -75
183 -103 17 -8 42 -24 58 -36 15 -12 27 -19 27 -15 0 3 12 -2 28 -12 15 -11
38 -24 52 -31 14 -7 57 -30 95 -52 117 -66 129 -71 139 -53 4 8 10 538 11
1177 12 4369 20 6020 29 6034 3 6 21 9 39 6 17 -2 64 -6 102 -9 80 -6 131 -12
195 -21 25 -3 68 -9 95 -13 l50 -6 2 -3635 c0 -1999 1 -3643 2 -3653 3 -49 35
-26 204 147 143 146 435 447 445 460 12 15 13 574 11 5916 -1 1086 -1 1980 0
1986 1 6 19 19 41 29 22 10 40 21 40 25 0 3 16 14 36 24 71 33 290 185 380
263 14 11 43 36 66 55 106 85 281 256 358 347 25 30 55 64 67 76 31 30 303
405 303 417 0 5 11 24 24 41 13 18 34 50 47 72 12 22 33 58 45 80 22 38 86
164 89 175 1 3 9 21 17 40 9 19 17 40 18 45 1 6 8 17 15 25 7 8 14 20 16 25 2
14 8 32 16 53 3 9 7 19 8 22 1 3 6 16 12 30 26 64 117 346 128 398 2 9 13 60
25 112 12 52 23 106 25 120 1 14 5 34 8 45 3 11 9 45 12 75 3 30 8 66 10 80
34 248 36 642 4 840 -6 36 -13 77 -15 93 -2 15 -6 39 -8 55 -17 107 -32 194
-40 220 -3 9 -8 33 -11 52 -8 45 -40 164 -59 217 -8 22 -12 44 -9 47 4 3 0 6
-7 6 -7 0 -11 3 -7 6 3 3 -5 36 -19 73 -14 36 -34 93 -46 126 -11 33 -24 63
-30 66 -5 3 -8 8 -6 10 6 7 -105 249 -114 249 -5 0 -6 5 -3 10 3 6 1 10 -5 10
-6 0 -9 4 -6 9 4 5 2 11 -2 13 -5 1 -31 44 -57 93 -43 79 -207 331 -225 345
-3 3 -17 21 -30 40 -23 33 -37 50 -85 105 -11 13 -36 42 -55 66 -61 75 -323
335 -367 364 -24 15 -43 31 -43 35 0 10 -356 270 -368 270 -5 0 -28 14 -52 31
-50 36 -99 65 -186 108 -33 17 -64 34 -68 38 -4 5 -11 8 -14 9 -4 0 -34 13
-67 28 -97 45 -165 76 -170 76 -2 0 -16 5 -32 12 -15 6 -30 12 -33 13 -3 1
-14 5 -25 10 -70 29 -115 44 -115 39 0 -4 -7 -1 -15 6 -8 7 -15 9 -15 5 0 -4
-7 -2 -15 5 -8 7 -15 9 -15 5 0 -4 -7 -2 -15 5 -8 7 -15 9 -15 5 0 -4 -7 -1
-17 6 -9 8 -18 13 -20 12 -1 -2 -4 -3 -5 -2 -3 0 -28 6 -63 13 -5 1 -16 5 -22
9 -7 5 -13 6 -13 3 0 -3 -12 -1 -26 5 -28 10 -173 43 -234 53 -19 3 -48 8 -65
12 -16 3 -43 7 -60 9 -16 2 -65 8 -107 14 -112 15 -244 23 -401 25 -76 0 -139
0 -140 -1z m423 -558 c60 -5 79 -8 135 -19 11 -2 42 -7 68 -10 63 -10 82 -13
138 -26 26 -6 55 -13 65 -15 11 -2 19 -4 19 -5 0 -2 16 -6 55 -13 14 -3 26 -6
28 -6 1 -1 3 -1 5 -1 1 0 56 -18 122 -41 66 -22 125 -42 130 -43 6 -1 32 -13
60 -25 27 -13 54 -24 60 -25 5 -1 37 -15 70 -31 33 -16 62 -29 65 -30 9 -3 75
-35 95 -47 44 -25 51 -29 75 -40 14 -7 47 -28 75 -47 27 -20 51 -35 53 -33 4
5 272 -190 272 -198 0 -4 21 -22 48 -40 26 -18 58 -45 73 -59 14 -14 45 -45
70 -67 54 -50 148 -151 209 -223 25 -30 55 -65 68 -79 12 -14 32 -42 44 -61
12 -20 28 -42 34 -48 7 -7 22 -29 35 -50 13 -21 29 -44 35 -51 7 -6 30 -44 50
-82 21 -39 42 -70 47 -70 4 0 5 -4 2 -10 -3 -5 -1 -10 5 -10 6 0 8 -4 5 -10
-3 -5 -1 -10 5 -10 6 0 9 -4 6 -9 -4 -5 -2 -11 3 -13 28 -10 206 -431 236
-558 2 -8 11 -42 20 -75 32 -119 35 -130 39 -158 3 -15 7 -35 10 -45 45 -149
74 -620 52 -852 -8 -86 -24 -215 -29 -245 -8 -38 -20 -100 -22 -105 -1 -5 -18
-82 -19 -90 -8 -39 -89 -306 -103 -340 -3 -8 -7 -17 -8 -20 -1 -3 -7 -18 -14
-35 -6 -16 -17 -43 -23 -60 -7 -16 -20 -45 -30 -63 -10 -18 -18 -39 -18 -46 0
-7 -7 -19 -15 -26 -8 -6 -14 -15 -13 -18 3 -10 -53 -123 -70 -144 -7 -9 -14
-23 -16 -31 -1 -8 -14 -31 -29 -50 -15 -20 -27 -40 -27 -45 0 -11 -216 -310
-240 -332 -9 -8 -32 -35 -51 -60 -32 -42 -192 -205 -255 -260 -53 -46 -100
-85 -139 -115 -21 -16 -56 -45 -77 -62 -22 -18 -43 -33 -47 -33 -4 0 -16 -8
-27 -18 -10 -10 -48 -35 -84 -57 -36 -21 -67 -42 -70 -46 -8 -12 -336 -171
-446 -217 -84 -35 -253 -94 -304 -107 -93 -23 -236 -53 -297 -61 -26 -3 -57
-8 -68 -11 -22 -4 -172 -21 -250 -28 -66 -5 -340 -6 -385 -1 -19 2 -73 7 -120
11 -47 3 -92 8 -101 11 -9 2 -34 6 -55 9 -31 3 -182 33 -254 50 -91 21 -283
80 -305 94 -5 3 -12 6 -15 7 -3 0 -13 4 -22 7 -10 4 -26 10 -35 14 -10 3 -20
7 -23 8 -3 0 -21 8 -40 17 -41 19 -72 31 -82 32 -4 1 -13 7 -20 14 -6 6 -16
12 -21 12 -12 0 -119 52 -137 66 -8 7 -22 14 -30 16 -8 2 -35 18 -59 36 -24
17 -48 32 -53 32 -12 0 -356 249 -366 264 -4 7 -25 25 -47 42 -45 32 -211 199
-265 265 -19 23 -50 58 -68 78 -17 20 -35 44 -38 54 -3 9 -9 17 -13 17 -5 0
-21 19 -36 42 -15 23 -32 47 -37 52 -18 21 -120 182 -140 221 -11 22 -24 42
-29 45 -16 11 -183 372 -194 420 -2 8 -15 47 -29 86 -14 39 -41 132 -61 206
-30 119 -43 183 -61 301 -2 15 -6 42 -9 60 -20 128 -28 557 -13 702 9 83 27
204 33 225 2 8 7 29 10 45 2 17 7 41 10 55 3 14 7 36 10 50 2 14 11 50 20 80
8 30 22 82 31 115 9 33 21 66 26 73 6 6 7 12 3 12 -4 0 -2 7 5 15 7 8 9 15 5
15 -4 0 -3 6 2 13 6 6 16 30 23 52 7 22 20 56 28 75 9 19 16 37 17 40 1 3 10
23 20 45 10 22 19 42 20 45 5 17 31 68 43 83 9 9 12 17 8 17 -4 0 1 12 11 28
10 15 29 50 43 77 13 28 38 70 57 94 18 24 33 48 33 53 0 13 201 288 210 288
4 0 19 18 34 40 28 43 208 226 296 302 106 91 127 107 275 214 103 74 396 241
457 259 13 4 37 15 53 23 17 9 32 16 35 17 3 0 53 19 112 43 59 23 113 42 120
42 7 0 37 9 66 20 29 11 70 23 90 26 20 3 44 10 53 14 8 5 33 11 55 14 34 4
67 10 169 30 12 2 48 7 80 11 33 4 69 9 80 11 11 3 54 7 95 11 41 3 76 7 78 8
6 5 382 -4 452 -10z"/>
<path d="M8307 14684 c-1 -1 -38 -5 -82 -8 -71 -5 -109 -9 -180 -21 -11 -1
-54 -8 -95 -15 -41 -6 -88 -15 -105 -20 -16 -5 -41 -12 -55 -14 -59 -12 -184
-50 -265 -81 -38 -15 -76 -27 -82 -28 -7 0 -13 -5 -13 -10 0 -6 -3 -8 -6 -4
-5 5 -56 -16 -173 -70 -20 -10 -39 -22 -43 -27 -5 -7 -8 -7 -8 -1 0 6 -3 6 -8
-1 -4 -6 -47 -32 -97 -59 -79 -42 -231 -138 -245 -155 -3 -3 -21 -17 -40 -30
-19 -13 -40 -29 -46 -35 -6 -5 -33 -28 -60 -50 -72 -59 -276 -264 -311 -312
-17 -23 -32 -41 -34 -38 -5 5 -192 -252 -202 -278 -4 -10 -17 -33 -29 -50 -50
-70 -170 -313 -198 -402 -7 -22 -16 -45 -21 -50 -15 -19 -91 -282 -105 -365
-2 -14 -9 -47 -14 -75 -39 -202 -54 -478 -37 -680 8 -90 13 -123 37 -270 6
-38 14 -83 16 -100 9 -71 28 -139 75 -275 16 -47 31 -92 33 -100 13 -49 150
-350 164 -360 5 -3 30 -44 57 -92 27 -49 53 -88 57 -88 5 0 6 -4 3 -10 -3 -5
-2 -10 2 -10 5 0 17 -15 28 -32 10 -18 30 -47 44 -64 14 -16 37 -45 51 -64 14
-18 41 -52 60 -74 19 -23 46 -54 60 -70 51 -60 196 -199 237 -227 23 -16 46
-35 50 -42 9 -15 288 -218 300 -219 4 0 27 -13 50 -29 23 -16 45 -29 48 -29 4
0 19 -9 33 -19 15 -10 30 -19 35 -20 7 0 43 -17 195 -88 29 -14 58 -26 65 -27
7 -1 17 -4 22 -7 22 -13 263 -89 330 -104 19 -4 80 -16 100 -20 11 -2 20 -4
20 -5 0 -4 177 -29 270 -37 151 -14 446 -8 565 11 14 2 57 10 95 16 39 6 84
14 100 16 56 7 234 53 287 73 14 5 29 7 32 4 3 -4 6 -2 6 3 0 5 8 10 19 11 55
4 523 225 543 256 4 7 8 8 8 2 0 -6 3 -6 8 0 4 6 32 26 62 45 30 19 57 37 60
40 3 3 21 17 40 30 19 13 37 27 40 30 3 3 18 16 35 29 105 81 306 274 364 351
19 25 42 52 51 61 23 20 202 267 218 299 15 31 43 79 65 114 10 14 15 26 12
26 -4 0 3 13 14 29 11 15 18 30 15 33 -2 3 2 11 11 18 8 7 15 16 15 21 0 5 13
37 29 71 15 35 32 74 36 88 4 14 11 30 15 35 7 9 68 201 75 235 2 8 4 16 5 18
2 1 3 5 4 10 1 4 7 27 13 52 27 107 34 137 37 171 2 19 6 45 10 56 17 53 31
245 31 428 0 197 -10 315 -39 470 -24 126 -25 128 -36 170 -6 22 -13 48 -15
58 -15 65 -83 256 -126 355 -51 118 -165 342 -178 352 -4 3 -22 30 -40 60 -19
30 -37 57 -41 60 -4 3 -20 25 -35 50 -16 24 -33 50 -39 56 -6 6 -27 30 -46 54
-67 83 -85 103 -172 189 -118 117 -145 141 -192 175 -23 16 -44 35 -48 41 -10
16 -243 185 -255 185 -5 0 -25 12 -44 26 -19 14 -47 32 -64 39 -16 8 -37 19
-45 25 -14 9 -149 73 -160 76 -3 0 -23 9 -45 19 -22 10 -42 19 -45 20 -3 1
-12 5 -20 8 -55 23 -210 75 -210 70 0 -3 -7 0 -15 7 -8 7 -15 10 -15 7 0 -4
-19 0 -41 9 -23 8 -51 16 -63 18 -12 3 -50 11 -86 20 -36 8 -85 18 -110 21
-24 4 -47 8 -50 10 -4 2 -33 6 -66 10 -32 3 -81 8 -109 11 -50 6 -353 12 -358
8z m373 -824 c53 -11 82 -18 88 -19 1 -1 4 -1 7 -1 11 0 121 -43 131 -51 6 -5
13 -7 16 -4 3 3 11 -1 18 -10 7 -8 19 -15 26 -15 22 0 204 -137 259 -195 65
-68 96 -105 90 -105 -3 0 2 -9 12 -19 10 -11 36 -55 58 -98 22 -43 44 -81 48
-84 5 -3 8 -10 8 -15 0 -5 11 -44 24 -86 34 -107 47 -195 46 -318 -1 -119 -3
-138 -25 -233 -32 -133 -95 -269 -172 -372 -44 -60 -80 -96 -214 -217 -10 -9
-21 -14 -24 -10 -3 3 -6 1 -6 -5 0 -23 -245 -136 -325 -150 -16 -3 -37 -9 -46
-13 -32 -18 -245 -27 -336 -15 -88 11 -255 57 -280 78 -7 5 -13 7 -13 4 0 -11
-130 62 -198 111 -74 53 -113 91 -172 162 -19 24 -41 49 -48 57 -7 7 -11 13
-7 13 4 0 -1 7 -10 16 -35 36 -130 245 -141 314 -3 19 -10 42 -14 51 -29 53
-29 348 -1 447 5 17 7 32 4 32 -3 0 0 7 7 15 7 8 9 15 6 15 -4 0 -4 6 1 13 4
6 8 14 8 17 3 19 33 94 60 145 62 120 162 242 281 345 39 33 211 130 218 122
3 -3 6 -1 6 5 0 5 6 10 13 10 6 1 38 11 70 23 134 50 391 70 527 40z"/>
</g>
</svg>
